<?xml version="1.0" encoding="iso-8859-1"?>
<!-- Generator: Adobe Illustrator 19.0.0, SVG Export Plug-In . SVG Version: 6.00 Build 0)  -->
<svg version="1.1" id="Capa_1" xmlns="http://www.w3.org/2000/svg" xmlns:xlink="http://www.w3.org/1999/xlink" x="0px" y="0px"
	 viewBox="0 0 360 360" style="enable-background:new 0 0 360 360;" xml:space="preserve">
<path id="XMLID_482_" d="M360,180c0-26.066-15.431-48.585-37.631-58.937c2.589-7.075,3.948-14.623,3.948-22.381
	c0-17.362-6.761-33.686-19.038-45.962c-12.277-12.277-28.6-19.038-45.962-19.038c-7.759,0-15.306,1.359-22.381,3.948
	C228.585,15.431,206.067,0,180,0s-48.585,15.431-58.936,37.631c-7.075-2.589-14.622-3.948-22.381-3.948
	c-17.362,0-33.685,6.761-45.962,19.038c-12.277,12.276-19.038,28.6-19.038,45.962c0,7.758,1.359,15.306,3.948,22.381
	C15.431,131.415,0,153.934,0,180s15.431,48.585,37.631,58.937c-2.589,7.075-3.948,14.623-3.948,22.381
	c0,17.362,6.761,33.686,19.038,45.962c12.277,12.277,28.6,19.038,45.962,19.038c7.759,0,15.306-1.359,22.381-3.948
	C131.415,344.569,153.933,360,180,360s48.585-15.431,58.936-37.631c7.075,2.589,14.622,3.948,22.381,3.948
	c17.362,0,33.685-6.761,45.962-19.038c12.277-12.276,19.038-28.6,19.038-45.962c0-7.758-1.359-15.306-3.948-22.381
	C344.569,228.585,360,206.066,360,180z M180,250c-38.66,0-70-31.34-70-70s31.34-70,70-70s70,31.34,70,70S218.66,250,180,250z"/>
<g>
</g>
<g>
</g>
<g>
</g>
<g>
</g>
<g>
</g>
<g>
</g>
<g>
</g>
<g>
</g>
<g>
</g>
<g>
</g>
<g>
</g>
<g>
</g>
<g>
</g>
<g>
</g>
<g>
</g>
</svg>
